<?xml version="1.0" encoding="UTF-8"?>
<svg width="144px" height="26px" viewBox="0 0 144 26" version="1.1" xmlns="http://www.w3.org/2000/svg" xmlns:xlink="http://www.w3.org/1999/xlink">
    <!-- Generator: sketchtool 55.2 (78181) - https://sketchapp.com -->
    <title>C7838AA8-3375-4994-9910-928C994833A5</title>
    <desc>Created with sketchtool.</desc>
    <g id="Page-1" stroke="none" stroke-width="1" fill="none" fill-rule="evenodd">
        <g id="Index" transform="translate(-100.000000, -27.000000)" fill="#FFFFFF">
            <g id="Header">
                <g id="FeederLogo" transform="translate(100.000000, 27.000000)">
                    <path d="M16.4,4.8 C16.4,5.1 16.1,5.4 15.9,5.4 L6.9,5.4 L11.5,10.9 L13,10.9 C13.4,10.9 13.7,11.1 13.7,11.4 L13.7,14.7 C13.7,15 13.4,15.3 13,15.3 L4.4,15.3 L4.4,24.6 C4.4,24.9 4.2,25.2 3.9,25.2 L0.6,25.2 C0.3,25.2 0,24.9 0,24.6 L0,10.9 L5.7,10.9 L0,4 L0,1.6 C0,1.3 0.3,1 0.6,1 L15.9,1 C16.2,1 16.4,1.3 16.4,1.6 L16.4,4.8 L16.4,4.8 Z" id="Shape"></path>
                    <path d="M41.2,24.5 C41.2,24.8 40.9,25.1 40.7,25.1 L25.4,25.1 C25.1,25.1 24.8,24.8 24.8,24.5 L24.8,1.5 C24.8,1.2 25.1,0.9 25.4,0.9 L40.2,0.9 C40.5,0.9 40.8,1.2 40.8,1.5 L40.8,4.8 C40.8,5.1 40.5,5.3 40.2,5.3 L29.2,5.3 L29.2,10.8 L39.6,10.8 C39.9,10.8 40.2,11 40.2,11.3 L40.2,14.6 C40.2,14.9 39.9,15.2 39.6,15.2 L29.2,15.2 L29.2,20.7 L40.7,20.7 C41,20.7 41.2,21 41.2,21.3 L41.2,24.5 L41.2,24.5 Z" id="Shape"></path>
                    <path d="M66.3,24.5 C66.3,24.8 66,25.1 65.8,25.1 L50.5,25.1 C50.2,25.1 49.9,24.8 49.9,24.5 L49.9,1.5 C49.9,1.2 50.2,0.9 50.5,0.9 L65.3,0.9 C65.6,0.9 65.9,1.2 65.9,1.5 L65.9,4.8 C65.9,5.1 65.6,5.3 65.3,5.3 L54.3,5.3 L54.3,10.8 L64.7,10.8 C65,10.8 65.3,11 65.3,11.3 L65.3,14.6 C65.3,14.9 65,15.2 64.7,15.2 L54.3,15.2 L54.3,20.7 L65.8,20.7 C66.1,20.7 66.3,21 66.3,21.3 L66.3,24.5 L66.3,24.5 Z" id="Shape"></path>
                    <path d="M75.5,25.1 C75.2,25.1 74.9,24.8 74.9,24.4 L74.9,1.6 C74.9,1.3 75.2,1.1 75.5,1.1 L81.5,1.1 C85,1.1 88.4,2.6 90.8,5.5 C95,10.6 94.3,18.2 89.2,22.4 C87,24.2 84.2,25.1 81.5,25.1 L75.5,25.1 L75.5,25.1 Z M81.5,5.4 L79.3,5.4 L79.3,20.7 L81.5,20.7 C83.2,20.7 85,20.1 86.4,19 C89.7,16.3 90.2,11.5 87.5,8.2 C86,6.4 83.7,5.4 81.5,5.4 L81.5,5.4 Z" id="Shape"></path>
                    <path d="M118.4,24.5 C118.4,24.8 118.1,25.1 117.9,25.1 L102.6,25.1 C102.3,25.1 102,24.8 102,24.5 L102,1.5 C102,1.2 102.3,0.9 102.6,0.9 L117.4,0.9 C117.7,0.9 118,1.2 118,1.5 L118,4.8 C118,5.1 117.7,5.3 117.4,5.3 L106.5,5.3 L106.5,10.8 L116.9,10.8 C117.2,10.8 117.5,11 117.5,11.3 L117.5,14.6 C117.5,14.9 117.2,15.2 116.9,15.2 L106.5,15.2 L106.5,20.7 L118,20.7 C118.3,20.7 118.5,21 118.5,21.3 L118.5,24.5 L118.4,24.5 Z" id="Shape"></path>
                    <path d="M142.5,24.3 C142.6,24.4 142.6,24.5 142.6,24.6 C142.6,24.9 142.4,25.2 142.1,25.2 L138.3,25.2 C138.1,25.2 137.9,25.1 137.9,24.9 L137.8,24.8 L133,16.3 L132.4,15.2 L130.3,15.2 L130.3,24.5 C130.3,24.8 130,25.1 129.8,25.1 L126.5,25.1 C126.2,25.1 125.9,24.8 125.9,24.5 L125.9,10.9 L129.9,10.9 L126.2,4.3 L125.9,3.8 L125.9,1.6 C125.9,1.3 126.2,1.1 126.5,1.1 L134.7,1.1 C137.2,1.1 139.5,1.8 141,3.1 C142.5,4.4 143.4,6.2 143.4,8.2 C143.4,11.1 141.3,14.1 137.2,15 L137.3,15.3 L137.9,16.4 L142.5,24.3 L142.5,24.3 Z M135,10.9 C135.3,10.9 135.6,10.9 135.8,10.8 C138.1,10.5 139.1,9.3 139.1,8.1 C139.1,6.8 137.8,5.4 134.7,5.4 L131.9,5.4 L134.4,9.8 L135,10.9 L135,10.9 Z" id="Shape"></path>
                </g>
            </g>
        </g>
    </g>
</svg>
